<svg xmlns="http://www.w3.org/2000/svg" width="24" height="24" viewBox="0 0 24 24" fill="none">
                                <g clip-path="url(#clip0_2388_179)">
                                    <path d="M22.1867 -0.0634766C23.1654 -0.0634766 23.9625 0.711508 23.9625 1.66743V22.2104C23.9625 23.1664 23.1654 23.9427 22.1867 23.9427H1.72764C0.750812 23.9427 -0.0429688 23.1664 -0.0429688 22.2104V1.66743C-0.0429688 0.711508 0.750812 -0.0634766 1.72764 -0.0634766H22.1867ZM20.4134 20.3923V14.1094C20.4134 11.024 19.7472 8.6519 16.1422 8.6519C14.4099 8.6519 13.2482 9.60173 12.7734 10.5023H12.7247V8.9362H9.31164V20.3923H12.8679V14.7261C12.8679 13.2316 13.1506 11.7836 15.0032 11.7836C16.8304 11.7836 16.8533 13.4927 16.8533 14.8212V20.3923H20.4134ZM7.078 8.9362H3.51391V20.3923H7.078V8.9362ZM5.29689 3.2414C4.15338 3.2414 3.2313 4.16648 3.2313 5.3061C3.2313 6.44601 4.15338 7.37104 5.29689 7.37104C6.43591 7.37104 7.36061 6.44601 7.36061 5.3061C7.36061 4.16648 6.43591 3.2414 5.29689 3.2414Z" fill="#FAFAFA"></path>
                                </g>
                                <defs>
                                    <clipPath id="clip0_2388_179">
                                        <rect width="24" height="24" fill="white"></rect>
                                    </clipPath>
                                </defs>
                            </svg>