<svg xmlns="http://www.w3.org/2000/svg" width="144" height="45" viewBox="0 0 144 45" fill="none">
                            <path d="M29.0859 17.6416C27.4897 18.6097 25.9964 19.722 24.6164 20.9681C23.4166 12.0083 15.8214 5.08755 6.65554 5.08755C6.42382 5.08755 6.1972 5.08755 5.96548 5.10299V31.4316C5.96548 35.7518 9.43613 39.274 13.6895 39.274H15.0952C14.9408 40.4892 14.8635 41.7354 14.8635 42.997C14.8635 43.4552 14.8739 43.9135 14.8945 44.3667H13.6843C10.8367 44.3667 8.21059 43.4192 6.08906 41.8075C2.96341 39.4542 0.93457 35.6798 0.93457 31.4316V0H5.95517V0.0103009C6.18174 2.20026e-06 6.41351 0 6.64523 0C17.4331 0 26.5164 7.51289 29.0756 17.6468L29.0859 17.6416Z" fill="#5652A2"></path>
                            <path d="M50.9765 22.7961V3.75903H45.9559V3.76933C45.7293 3.75903 45.5027 3.75903 45.271 3.75903C39.1381 3.83112 33.3504 6.52937 28.7829 10.7673C29.8077 12.1988 30.7088 13.7178 31.4709 15.3244C34.7973 11.3697 39.7509 8.85172 45.271 8.85172C45.4976 8.85172 45.7293 8.85172 45.9559 8.86717V16.931C45.8941 16.931 45.8374 16.931 45.7756 16.9259C45.5954 16.9207 45.4153 16.9104 45.235 16.9104C41.1877 16.9104 37.3566 17.8476 33.9323 19.5109C25.1321 23.8003 19.0352 32.9249 19.0352 43.4604C19.0352 43.7642 19.0352 44.0629 19.0506 44.3667H24.0764C24.0609 44.068 24.0558 43.7642 24.0558 43.4604C24.0558 35.6746 28.1702 28.8466 34.3082 25.0876C37.5008 23.1308 41.2392 22.0031 45.235 22.0031C47.2227 22.0031 49.1536 22.2812 50.9765 22.8013V22.7961Z" fill="url(#paint0_linear_3088_54)"></path>
                            <path d="M36.9446 44.1762C36.9446 39.6705 40.5647 35.999 45.0189 35.999C47.3721 35.999 49.5038 37.0289 50.9765 38.6664V44.3564H48.0619V44.1762C48.0619 42.4717 46.6974 41.0866 45.0136 41.0866C43.3297 41.0866 41.9602 42.4717 41.9602 44.1762V44.3564H36.9395V44.1762H36.9446Z" fill="url(#paint1_linear_3088_54)"></path>
                            <path d="M45.0199 26.3543C40.2722 26.3543 35.9879 28.3831 32.9395 31.622L37.1825 34.5263C39.2577 32.621 42.0024 31.4418 45.0199 31.4418C47.1981 31.4418 49.2371 32.0494 50.9776 33.1102V27.4665C49.129 26.7456 47.1157 26.3491 45.0199 26.3491V26.3543Z" fill="url(#paint2_linear_3088_54)"></path>
                            <path d="M30.641 34.7065L34.8017 37.5541C33.8748 39.2533 33.3392 41.1998 33.3392 43.275C33.3392 43.6457 33.3599 44.001 33.3908 44.3615H28.3496C28.3238 44.001 28.3135 43.6406 28.3135 43.275C28.3135 40.1493 29.1734 37.2245 30.6358 34.7065H30.641Z" fill="url(#paint3_linear_3088_54)"></path>
                            <path d="M71.8357 36.0761C70.8058 35.2677 69.1013 34.6755 66.712 34.3099C65.1106 34.0576 63.9623 33.7074 63.2774 33.2594C62.5926 32.8063 62.2526 32.1832 62.2526 31.3799C62.2526 30.3449 62.6336 29.5365 63.3906 28.9494C64.1527 28.3624 65.1929 28.0741 66.5111 28.0741C67.6131 28.0741 68.5967 28.2903 69.4566 28.7229C70.3166 29.1554 71.1405 29.8403 71.9232 30.7775L73.3289 29.3768C72.4124 28.3264 71.3928 27.5437 70.2703 27.0339C69.1529 26.5241 67.8963 26.2718 66.5111 26.2718C65.2907 26.2718 64.2044 26.4932 63.2415 26.936C62.2786 27.3789 61.5266 27.9865 60.9859 28.7538C60.4452 29.521 60.1722 30.4067 60.1722 31.4108C60.1722 32.7805 60.6666 33.8362 61.6502 34.5828C62.6337 35.3243 64.2661 35.8804 66.537 36.2512C68.2723 36.5344 69.508 36.9309 70.2341 37.4407C70.9601 37.9505 71.3258 38.6714 71.3258 39.6086C71.3258 40.6951 70.9036 41.5653 70.0591 42.2141C69.2146 42.8681 68.092 43.1925 66.6914 43.1925C65.9396 43.1925 65.2237 43.0844 64.5492 42.8681C63.8746 42.6518 63.2362 42.3274 62.6338 41.9052C62.0313 41.4778 61.4648 40.9422 60.9293 40.2883L59.5029 41.7146C60.4556 42.8012 61.5368 43.6199 62.7469 44.1709C63.957 44.7219 65.2753 44.9999 66.6914 44.9999C67.9942 44.9999 69.1529 44.7682 70.1622 44.3099C71.1714 43.8516 71.9642 43.2131 72.5307 42.3944C73.0971 41.5756 73.3805 40.6384 73.3805 39.588C73.3805 38.0689 72.8654 36.9052 71.8407 36.0916L71.8357 36.0761Z" fill="#033D5A"></path>
                            <path d="M82.3709 33.5377C83.1587 33.5377 83.859 33.7128 84.4769 34.0629C85.0948 34.4131 85.5788 34.9074 85.9289 35.5408L87.309 34.2638C86.1401 32.6623 84.5131 31.859 82.4224 31.859C81.2226 31.859 80.1513 32.1371 79.2142 32.6984C78.277 33.2596 77.5459 34.032 77.0104 35.0156C76.4748 36.0042 76.207 37.1371 76.207 38.4244C76.207 39.7117 76.4698 40.8446 76.995 41.8333C77.5203 42.8168 78.2463 43.5892 79.1732 44.1505C80.1001 44.7118 81.1658 44.9898 82.3656 44.9898C83.4006 44.9898 84.3379 44.7787 85.1721 44.3616C86.0063 43.9445 86.7065 43.3523 87.2781 42.5851L85.9239 41.308C85.5222 41.9569 85.0278 42.4564 84.446 42.7962C83.8589 43.1412 83.1946 43.3111 82.4428 43.3111C81.1915 43.3111 80.1773 42.8631 79.3997 41.9723C78.6222 41.0763 78.2358 39.8971 78.2358 38.4244C78.2358 36.9517 78.6222 35.7519 79.3894 34.8662C80.1567 33.9805 81.1505 33.5377 82.3709 33.5377Z" fill="#033D5A"></path>
                            <path d="M97.5051 32.4718C96.7224 32.0598 95.8009 31.859 94.7504 31.859C92.8297 31.859 91.1664 32.5954 89.7658 34.0629L91.0172 35.2885C92.0007 34.1041 93.2055 33.512 94.6267 33.512C95.7132 33.512 96.5682 33.8158 97.1964 34.4285C97.8246 35.0362 98.1335 35.86 98.1335 36.8951V36.9929H94.6783C93.0562 36.9929 91.7689 37.3585 90.806 38.0949C89.843 38.8312 89.3643 39.825 89.3643 41.0763C89.3643 41.8281 89.5546 42.5027 89.9305 43.0949C90.3064 43.687 90.8265 44.1505 91.4959 44.4852C92.1653 44.8199 92.9326 44.9847 93.8028 44.9847C94.8378 44.9847 95.7596 44.7581 96.5577 44.3101C97.2066 43.9445 97.7369 43.4656 98.1591 42.8837V44.5882H99.9873V36.823C99.9873 35.8189 99.7709 34.9486 99.3383 34.2071C98.9058 33.4656 98.2931 32.8889 97.5104 32.4769L97.5051 32.4718ZM96.2281 42.8683C95.5947 43.2081 94.874 43.3832 94.0759 43.3832C93.2777 43.3832 92.603 43.167 92.1086 42.7293C91.6143 42.2967 91.3672 41.72 91.3672 40.9991C91.3672 40.2164 91.6763 39.6088 92.2942 39.1814C92.9121 38.754 93.7824 38.5429 94.8998 38.5429H98.1335V40.6541C98.0305 40.927 97.9121 41.1948 97.7576 41.4368C97.3714 42.0444 96.8615 42.5233 96.2281 42.8632V42.8683Z" fill="#033D5A"></path>
                            <path d="M110.183 31.859C109.498 31.859 108.839 31.9929 108.206 32.2607C107.573 32.5284 107.022 32.9661 106.563 33.5737C106.306 33.9188 106.095 34.3307 105.925 34.8044V32.2607H104.02V44.5882H105.951V39.0526C105.951 37.7653 106.136 36.72 106.501 35.9064C106.867 35.0979 107.346 34.5006 107.928 34.1299C108.515 33.754 109.138 33.5686 109.807 33.5686C110.724 33.5686 111.455 33.8982 112.001 34.5573C112.542 35.2164 112.814 36.1999 112.814 37.5027V44.5933H114.745V37.2761C114.745 35.5202 114.339 34.1814 113.53 33.2545C112.722 32.3276 111.604 31.8642 110.183 31.8642V31.859Z" fill="#033D5A"></path>
                            <path d="M70.9245 18.8105H62.6803V3.52728H59.292V21.8486H70.9245V18.8105Z" fill="#033D5A"></path>
                            <path d="M80.45 21.5551C80.8722 21.2873 81.2479 20.9578 81.562 20.5664V21.8486H84.8525V8.90833H81.5364V17.1678C81.4489 17.4408 81.3253 17.6931 81.1811 17.9248C80.8928 18.3779 80.5272 18.7435 80.0947 19.001C79.6673 19.2585 79.1934 19.3872 78.6837 19.3872C77.973 19.3872 77.4323 19.1606 77.0358 18.6972C76.6341 18.2286 76.4333 17.518 76.4333 16.586V8.91346H73.1172V16.8846C73.1172 18.5994 73.5549 19.9382 74.4148 20.8599C75.2799 21.7817 76.4385 22.2503 77.8597 22.2503C78.8484 22.2503 79.7188 22.0185 80.45 21.5551Z" fill="#033D5A"></path>
                            <path d="M104.162 21.8485H107.478V14.1039C107.478 12.3222 107.072 10.9371 106.263 9.97414C105.449 9.00092 104.311 8.50659 102.885 8.50659C102.211 8.50659 101.557 8.63532 100.939 8.88764C100.316 9.13996 99.7696 9.54676 99.3062 10.0823C99.0642 10.3655 98.8583 10.6899 98.6781 11.0607C98.4258 10.4067 98.0755 9.87116 97.6326 9.46436C96.9426 8.83099 96.0571 8.50659 94.9861 8.50659C94.3733 8.50659 93.7862 8.62503 93.2404 8.8619C92.6842 9.09877 92.195 9.46951 91.7728 9.95869C91.6492 10.1029 91.5361 10.2574 91.4331 10.4324V8.90824H88.1426V21.8485H91.4587V15.6075C91.4587 14.2223 91.7162 13.1513 92.2208 12.4304C92.7203 11.7198 93.3433 11.3799 94.1312 11.3799C94.7697 11.3799 95.2434 11.6168 95.5935 12.106C95.9488 12.6106 96.1344 13.3573 96.1344 14.3305V21.8537H99.4505V15.6127C99.4505 14.2275 99.708 13.1564 100.213 12.4355C100.712 11.7249 101.335 11.3851 102.123 11.3851C102.761 11.3851 103.24 11.6219 103.601 12.1163C103.967 12.6209 104.152 13.3676 104.152 14.3408V21.864L104.162 21.8485Z" fill="#033D5A"></path>
                            <path d="M112.289 6.84346C112.876 6.84346 113.371 6.65292 113.757 6.27187C114.148 5.89082 114.344 5.41709 114.344 4.86096C114.344 4.30483 114.148 3.80534 113.757 3.42429C113.365 3.04324 112.881 2.85272 112.31 2.85272C111.738 2.85272 111.228 3.04324 110.837 3.42429C110.446 3.80534 110.25 4.28938 110.25 4.86096C110.25 5.43254 110.446 5.89082 110.837 6.27187C111.223 6.65292 111.713 6.84346 112.284 6.84346H112.289Z" fill="#033D5A"></path>
                            <path d="M113.972 8.91357H110.656V21.8539H113.972V8.91357Z" fill="#033D5A"></path>
                            <path d="M124.337 8.51184C123.714 8.51184 123.075 8.64573 122.442 8.9032C121.804 9.16581 121.232 9.62925 120.753 10.2729C120.702 10.3399 120.655 10.412 120.609 10.484V8.91349H117.318V21.8538H120.635V15.6849C120.635 14.6499 120.779 13.8054 121.067 13.1771C121.35 12.5541 121.716 12.0958 122.149 11.8126C122.581 11.5294 123.05 11.38 123.539 11.38C124.229 11.38 124.764 11.622 125.171 12.1164C125.583 12.621 125.789 13.3883 125.789 14.4027V21.8486H129.105V14.104C129.105 12.3069 128.678 10.9114 127.839 9.9588C126.989 8.99588 125.815 8.51184 124.337 8.51184Z" fill="#033D5A"></path>
                            <path d="M142.345 11.0453C141.866 10.2472 141.186 9.61895 140.321 9.17611C139.461 8.73842 138.442 8.51184 137.298 8.51184C135.218 8.51184 133.395 9.22245 131.871 10.6231L131.722 10.7621L133.606 12.8527L133.761 12.6983C134.719 11.725 135.826 11.2307 137.046 11.2307C137.957 11.2307 138.673 11.4727 139.183 11.9516C139.641 12.379 139.889 12.9454 139.935 13.6766H137.268C135.476 13.6766 134.044 14.0577 133.004 14.8043C131.943 15.5664 131.402 16.6375 131.402 17.9918C131.402 18.8311 131.608 19.5778 132.01 20.2163C132.412 20.8548 132.983 21.3594 133.699 21.7199C134.41 22.0752 135.239 22.2554 136.171 22.2554C137.206 22.2554 138.128 22.0237 138.915 21.5654C139.343 21.3182 139.719 21.0144 140.048 20.6591V21.8538H143.066V13.8826C143.066 12.8012 142.824 11.8435 142.35 11.0453H142.345ZM138.483 19.2225C137.988 19.4954 137.422 19.6344 136.789 19.6344C136.155 19.6344 135.656 19.4748 135.285 19.1452C134.919 18.826 134.739 18.4089 134.739 17.8836C134.739 17.2966 134.966 16.8589 135.429 16.5345C135.908 16.1998 136.603 16.0299 137.494 16.0299H139.945V17.5644C139.873 17.7395 139.786 17.9094 139.688 18.069C139.384 18.553 138.977 18.9392 138.483 19.2122V19.2225Z" fill="#033D5A"></path>
                            <defs>
                              <linearGradient id="paint0_linear_3088_54" x1="58.546" y1="65.0207" x2="24.6428" y2="6.00928" gradientUnits="userSpaceOnUse">
                                <stop stop-color="#5652A2"></stop>
                                <stop offset="1" stop-color="#E66869"></stop>
                              </linearGradient>
                              <linearGradient id="paint1_linear_3088_54" x1="57.7376" y1="65.4893" x2="23.8344" y2="6.47786" gradientUnits="userSpaceOnUse">
                                <stop stop-color="#5652A2"></stop>
                                <stop offset="1" stop-color="#E66869"></stop>
                              </linearGradient>
                              <linearGradient id="paint2_linear_3088_54" x1="61.3947" y1="63.3832" x2="27.4966" y2="4.37173" gradientUnits="userSpaceOnUse">
                                <stop stop-color="#5652A2"></stop>
                                <stop offset="1" stop-color="#E66869"></stop>
                              </linearGradient>
                              <linearGradient id="paint3_linear_3088_54" x1="48.6587" y1="70.7003" x2="14.7607" y2="11.6887" gradientUnits="userSpaceOnUse">
                                <stop stop-color="#5652A2"></stop>
                                <stop offset="1" stop-color="#E66869"></stop>
                              </linearGradient>
                            </defs>
                          </svg>