<svg xmlns="http://www.w3.org/2000/svg" width="164" height="21" viewBox="0 0 164 21" fill="none">
                                    <path d="M162.58 6.44527C161.375 7.64858 159.424 7.64858 158.219 6.44527C157.63 5.87805 157.303 5.0918 157.315 4.274C157.323 2.57616 158.702 1.20414 160.4 1.20416C161.22 1.19254 162.009 1.51933 162.582 2.1077C163.172 2.67239 163.502 3.45701 163.491 4.274C163.502 5.09131 163.172 5.87629 162.582 6.44129M160.4 6.64031C161.033 6.64969 161.643 6.39776 162.085 5.94375C162.54 5.5066 162.792 4.90039 162.782 4.27002C162.792 3.63999 162.539 3.03419 162.085 2.59728C161.156 1.6708 159.652 1.6708 158.723 2.59728C158.269 3.03419 158.017 3.63999 158.026 4.27002C158.028 5.58055 159.089 6.64299 160.4 6.64628M159.355 5.83429V2.73062H160.594C160.856 2.71715 161.112 2.81258 161.301 2.99432C161.477 3.17354 161.572 3.41706 161.563 3.66799C161.573 4.04565 161.316 4.37824 160.948 4.46406L162.06 5.83628H161.218L160.173 4.5566H160.063V5.83429H159.355ZM160.062 3.96055H160.509C160.6 3.96366 160.689 3.93556 160.762 3.88094C160.825 3.82706 160.861 3.74835 160.861 3.6655C160.861 3.58265 160.825 3.50395 160.762 3.45007C160.687 3.39664 160.597 3.36998 160.505 3.37444H160.058L160.062 3.96055Z" fill="#FAFAFA"></path>
                                    <path d="M13.7643 19.7089L4.64636 8.14002V19.7089H0.456055V0.998291H4.06623L13.1573 12.5413V0.998291H17.3725V19.7059L13.7643 19.7089Z" fill="#FAFAFA"></path>
                                    <path d="M19.8513 13.0934C19.8194 11.2436 20.5494 9.46207 21.8701 8.16645C23.1907 6.87082 24.9859 6.17505 26.8348 6.24225C30.629 6.24225 34.0292 8.82947 33.871 14.0427H23.7211C23.9052 15.3871 24.9073 16.5722 27.0417 16.5722C28.0483 16.6511 29.0183 16.1775 29.5752 15.3353H33.7387C32.7135 18.2391 29.9113 20.1321 26.8348 19.9993C24.9724 20.0815 23.1602 19.3832 21.8345 18.0725C20.5089 16.7618 19.7901 14.9576 19.8513 13.0944M23.8316 11.5132H29.4668C29.1683 10.2498 28.024 9.36938 26.7263 9.40463C25.3801 9.32364 24.1651 10.2075 23.8276 11.5132" fill="#FAFAFA"></path>
                                    <path d="M36.1895 14.0419V6.53198H40.1698V13.3573C40.1698 15.2808 40.7231 16.3873 42.1988 16.3873C43.7014 16.3873 44.6765 15.3594 44.6765 12.9354V6.53198H48.6569V19.7079H44.6765V18.3645C43.8599 19.467 42.5413 20.0818 41.1718 19.9985C37.904 19.9985 36.1914 17.6272 36.1914 14.0429" fill="#FAFAFA"></path>
                                    <path d="M51.9209 6.53206H55.9012V8.50831C56.4169 7.22635 57.656 6.38306 59.0378 6.37385C59.4742 6.36576 59.9097 6.41902 60.3314 6.53206V10.5642C59.7663 10.3551 59.1686 10.248 58.5661 10.2477C56.8525 10.2477 55.9042 11.5652 55.9042 13.4628V19.708H51.9239L51.9209 6.53206Z" fill="#FAFAFA"></path>
                                    <path d="M61.2512 13.1204C61.2298 10.3125 62.9048 7.76914 65.4929 6.67975C68.081 5.59036 71.0707 6.17024 73.0638 8.14821C75.0569 10.1262 75.6596 13.1113 74.5901 15.7077C73.5204 18.304 70.99 19.9984 68.1819 19.9985C66.3486 20.0128 64.5854 19.2944 63.284 18.003C61.9827 16.7115 61.2509 14.9539 61.2512 13.1204ZM71.1025 13.1204C71.1861 12.0223 70.6476 10.9699 69.7081 10.3953C68.7686 9.82065 67.5864 9.82065 66.6469 10.3953C65.7074 10.9699 65.1688 12.0223 65.2524 13.1204C65.1688 14.2185 65.7074 15.271 66.6469 15.8456C67.5864 16.4202 68.7686 16.4202 69.7081 15.8456C70.6476 15.271 71.1861 14.2185 71.1025 13.1204Z" fill="#FAFAFA"></path>
                                    <path d="M92.6886 18.075C90.9831 19.3452 88.9123 20.0294 86.7858 20.0253C84.2146 20.046 81.7426 19.0336 79.9244 17.2154C78.1063 15.3973 77.0939 12.9253 77.1146 10.3541C77.1146 5.01282 81.4445 0.682861 86.7858 0.682861C92.1271 0.682861 96.457 5.01282 96.457 10.3541C96.4728 12.5852 95.719 14.7536 94.3226 16.4938L97.8054 19.7089H94.4589L92.6886 18.075ZM86.7858 17.7058C88.261 17.7109 89.7032 17.2701 90.9234 16.441L87.9451 13.6737L89.4467 11.987L92.5563 14.8598C93.5142 13.5543 94.0229 11.9733 94.0061 10.3541C94.0494 7.7506 92.6852 5.32613 90.4375 4.01173C88.1897 2.69733 85.4078 2.69733 83.16 4.01173C80.9122 5.32613 79.5481 7.7506 79.5913 10.3541C79.5429 12.2911 80.2802 14.1653 81.6353 15.5503C82.9905 16.9352 84.8482 17.713 86.7858 17.7068" fill="#FAFAFA"></path>
                                    <path d="M99.9629 6.53198H102.229V14.2797C102.229 16.4928 103.388 17.8899 105.207 17.8899C107.263 17.8899 108.87 16.0987 108.87 13.0677V6.53198H111.133V19.7079H108.867V17.6789C108.04 19.1317 106.48 20.0113 104.809 19.9676C101.91 19.9676 99.96 17.8859 99.96 14.618L99.9629 6.53198Z" fill="#FAFAFA"></path>
                                    <path d="M120.832 6.26814C122.653 6.25795 124.371 7.10601 125.47 8.55684V6.53184H127.739V19.7078H125.47V17.6788C124.371 19.1296 122.653 19.9777 120.832 19.9675C119.062 19.932 117.38 19.1858 116.166 17.8969C114.951 16.608 114.306 14.8848 114.376 13.1153C114.307 11.346 114.952 9.62307 116.166 8.33441C117.38 7.04574 119.062 6.29967 120.832 6.26416M121.172 8.34588C119.931 8.34781 118.745 8.85979 117.893 9.76177C117.041 10.6638 116.597 11.8764 116.666 13.1153C116.567 14.7843 117.4 16.3708 118.832 17.2353C120.263 18.0998 122.055 18.0998 123.486 17.2353C124.917 16.3708 125.751 14.7843 125.652 13.1153C125.726 11.8796 125.288 10.6679 124.441 9.76535C123.593 8.86285 122.412 8.34939 121.174 8.34588" fill="#FAFAFA"></path>
                                    <path d="M132.007 6.53191H134.273V8.56089C135.143 7.08586 136.752 6.20701 138.463 6.27219C141.414 6.27219 143.443 8.32804 143.443 11.5949V19.7118H141.203V11.9342C141.203 9.72016 139.939 8.35192 138.094 8.35192C135.959 8.35192 134.273 10.0913 134.273 13.1741V19.7098H132.007V6.53191Z" fill="#FAFAFA"></path>
                                    <path d="M152.483 19.8403C151.385 19.941 150.3 19.5487 149.521 18.7696C148.742 17.9905 148.35 16.9054 148.45 15.8082V8.61377H145.657V6.53205H148.45V2.86914H150.716V6.53205H154.508V8.61377H150.713V15.5177C150.713 17.2043 151.477 17.7576 152.902 17.7576C153.449 17.758 153.992 17.6689 154.51 17.4939V19.5239C153.855 19.7395 153.17 19.8464 152.481 19.8403" fill="#FAFAFA"></path>
                                </svg>