<svg xmlns="http://www.w3.org/2000/svg" width="92" height="97" viewBox="0 0 92 97" fill="none">
                                    <g clip-path="url(#clip0_2376_326)">
                                        <path d="M81.9904 72.9851C87.5169 65.4995 90.7837 56.2447 90.7837 46.2279C90.7837 21.3264 70.5962 1.13892 45.6947 1.13892C20.7933 1.13892 0.605806 21.3264 0.605806 46.2279C0.605806 56.4899 4.0337 65.9514 9.80774 73.5307" stroke="#FAFAFA" stroke-width="1.11765" stroke-miterlimit="10" stroke-linecap="round"></path>
                                        <path d="M71.3006 56.8531C72.6587 53.5814 73.4111 49.9925 73.4111 46.2281C73.4111 30.9204 61.0025 18.5117 45.6948 18.5117C30.3871 18.5117 17.9784 30.9204 17.9784 46.2281C17.9784 49.9733 18.7212 53.5478 20.0698 56.8074" stroke="#FAFAFA" stroke-width="1.11765" stroke-miterlimit="10" stroke-linecap="round" stroke-dasharray="4.21 4.21"></path>
                                        <path d="M68.9009 96.0908H22.4874" stroke="#FAFAFA" stroke-width="1.11765" stroke-miterlimit="10" stroke-linecap="round"></path>
                                        <path d="M54.9497 43.8071V41.4201C54.9497 40.2278 53.9834 39.259 52.7887 39.259H38.8175C37.6372 39.259 36.6781 40.2158 36.6781 41.3985V43.8047" stroke="#FAFAFA" stroke-width="1.11765" stroke-miterlimit="10" stroke-linecap="round"></path>
                                        <path d="M58.3149 44.5283H33.0746" stroke="#FAFAFA" stroke-width="1.11765" stroke-miterlimit="10" stroke-linecap="round"></path>
                                        <path d="M28.6821 51.6196L13.2302 87.598C12.3311 89.6918 13.9609 91.9802 16.3527 91.9802H45.7782H45.6124H75.0378C77.4297 91.9802 79.0595 89.6918 78.1604 87.598L62.7085 51.6196" stroke="#FAFAFA" stroke-width="1.11765" stroke-miterlimit="10" stroke-linecap="round"></path>
                                        <path d="M13.6636 87.7903H43.1348" stroke="#FAFAFA" stroke-width="1.11765" stroke-miterlimit="10" stroke-linecap="round"></path>
                                        <path d="M63.0024 87.7903H77.75" stroke="#FAFAFA" stroke-width="1.11765" stroke-miterlimit="10" stroke-linecap="round" stroke-dasharray="4.21 4.21"></path>
                                        <path d="M52.7764 10.1533H38.6129" stroke="#FAFAFA" stroke-width="1.11765" stroke-miterlimit="10" stroke-linecap="round"></path>
                                    </g>
                                    <defs>
                                        <clipPath id="clip0_2376_326">
                                            <rect width="91.3798" height="96.1538" fill="white" transform="matrix(-1 0 0 1 91.3848 0.53833)"></rect>
                                        </clipPath>
                                    </defs>
                                </svg>