<svg xmlns="http://www.w3.org/2000/svg" width="24" height="25" viewBox="0 0 24 25" fill="none">
                                        <path d="M22 12.7594C22 12.268 21.9947 11.2765 21.9842 10.7837C21.9189 7.71814 21.8862 6.18537 20.7551 5.04994C19.6239 3.91451 18.0497 3.87496 14.9012 3.79585C12.9607 3.74709 11.0393 3.74709 9.09882 3.79584C5.95033 3.87494 4.37608 3.91449 3.24495 5.04993C2.11382 6.18536 2.08114 7.71813 2.01576 10.7837C1.99474 11.7694 1.99475 12.7492 2.01577 13.7349C2.08114 16.8005 2.11383 18.3332 3.24496 19.4687C4.37608 20.6041 5.95033 20.6436 9.09883 20.7227C9.90159 20.7429 10.7011 20.7547 11.5 20.7582" stroke="white" stroke-width="1.5" stroke-linecap="round" stroke-linejoin="round"></path>
                                        <path d="M2 6.25928L8.91302 10.1839C11.4387 11.6178 12.5613 11.6178 15.087 10.1839L22 6.25928" stroke="white" stroke-width="1.5" stroke-linejoin="round"></path>
                                        <path d="M22 17.7593H14M22 17.7593C22 17.0591 20.0057 15.7508 19.5 15.2593M22 17.7593C22 18.4595 20.0057 19.7678 19.5 20.2593" stroke="white" stroke-width="1.5" stroke-linecap="round" stroke-linejoin="round"></path>
                                    </svg>