<svg xmlns="http://www.w3.org/2000/svg" width="24" height="24" viewBox="0 0 24 24" fill="none">
                                <path d="M12.1535 10.7294L8.0882 5.04102H5.91992L10.9558 12.0869L11.5897 12.9733L15.9001 19.0094H18.0684L12.7847 11.6157L12.1535 10.7294Z" fill="#FAFAFA"></path>
                                <path d="M21.1598 1H2.84021C1.82385 1 1 1.82385 1 2.84021V21.1598C1 22.1761 1.82385 23 2.84021 23H21.1598C22.1761 23 23 22.1761 23 21.1598V2.84021C23 1.82385 22.1761 1 21.1598 1ZM15.2354 20L10.8728 13.787L5.41144 20H4L10.2469 12.8953L4 4H8.76465L12.8948 9.88196L18.0696 4H19.481L13.524 10.7756L20 20H15.2354Z" fill="#FAFAFA"></path>
                            </svg>