<svg width="1539" height="265" viewBox="0 0 1539 265" fill="none" xmlns="http://www.w3.org/2000/svg">
<g clip-path="url(#clip0_2382_41)">
<path d="M509.608 235.498H376.747V23.4648H412.033V204.353H509.608V235.498Z" fill="#033D5A"/>
<path d="M642.185 172.925L649.016 178.552C649.618 190.621 647.565 201.274 642.929 210.582C638.292 219.89 631.815 227.146 623.498 232.384C615.181 237.622 605.413 240.241 594.123 240.241C577.914 240.241 564.925 235.003 555.121 224.527C545.318 214.051 540.434 198.938 540.434 179.154V87.2059H574.835V175.58C574.835 187.259 577.418 196.107 582.55 202.123C587.682 208.14 594.796 211.184 603.891 211.184C610.403 211.184 616.385 209.556 621.835 206.3C627.285 203.044 631.815 198.549 635.461 192.815C639.106 187.082 641.336 180.464 642.15 172.961L642.185 172.925ZM674.498 235.498H640.38V207.043L640.097 198.726V87.2059H674.498V235.498Z" fill="#033D5A"/>
<path d="M942.31 235.498H907.909V148.894C907.909 136.825 905.573 127.588 900.937 121.182C896.301 114.776 889.824 111.555 881.507 111.555C871.42 111.555 863.209 116.05 856.909 125.039C850.574 134.029 847.424 147.053 847.424 164.041V235.498H813.023V148.894C813.023 136.825 810.758 127.588 806.193 121.182C801.627 114.776 795.221 111.555 786.904 111.555C776.818 111.555 768.607 116.05 762.307 125.039C755.972 134.029 752.822 147.053 752.822 164.041V235.498H718.421V87.2409H752.539V121.04L750.451 120.757C752.609 111.661 756.078 104.335 760.82 98.814C765.563 93.2929 771.049 89.1874 777.278 86.4976C783.507 83.8432 790.089 82.4984 796.991 82.4984C809.06 82.4984 818.934 86.0729 826.649 93.1867C834.365 100.3 839.497 110.67 842.08 124.332H838.222C840.771 114.457 844.699 106.423 849.937 100.3C855.175 94.1777 861.298 89.6829 868.341 86.8162C875.349 83.9494 882.71 82.5337 890.426 82.5337C906.635 82.5337 919.341 88.0195 928.543 98.991C937.744 109.962 942.345 125.747 942.345 146.31V235.568L942.31 235.498Z" fill="#033D5A"/>
<path d="M1023.53 36.8072C1023.53 42.7531 1021.44 47.7434 1017.3 51.778C1013.16 55.8481 1007.92 57.8654 1001.59 57.8654C995.254 57.8654 990.335 55.8481 986.159 51.778C982.018 47.7434 979.93 42.7177 979.93 36.8072C979.93 30.8968 982.018 25.588 986.159 21.5179C990.3 17.4833 995.537 15.4305 1001.87 15.4305C1008.21 15.4305 1013.13 17.4479 1017.3 21.5179C1021.44 25.588 1023.53 30.6491 1023.53 36.8072ZM1019.07 235.497H984.672V87.2407H1019.07V235.533V235.497Z" fill="#033D5A"/>
<path d="M1198.23 235.498H1163.83V149.779C1163.83 137.144 1161.21 127.588 1155.97 121.147C1150.73 114.741 1143.65 111.52 1134.77 111.52C1128.43 111.52 1122.52 113.361 1116.97 117.006C1111.45 120.651 1106.88 126.385 1103.34 134.207C1099.8 142.028 1098 152.256 1098 164.891V235.463H1063.6V87.2415H1097.71V132.897H1093.26C1094.85 119.837 1098.35 109.68 1103.77 102.354C1109.22 95.0277 1115.52 89.8959 1122.74 86.9229C1129.96 83.95 1137.11 82.4636 1144.25 82.4636C1161.07 82.4636 1174.27 87.9139 1183.86 98.7792C1193.45 109.645 1198.23 125.465 1198.23 146.24V235.498Z" fill="#033D5A"/>
<path d="M1284.23 240.241C1273.54 240.241 1264.16 238.223 1256.06 234.153C1247.95 230.119 1241.62 224.456 1237.09 217.236C1232.52 210.016 1230.26 201.663 1230.26 192.178C1230.26 176.96 1236.24 165.033 1248.2 156.433C1260.16 147.832 1276.52 143.515 1297.29 143.515H1334.06V166.661H1299.94C1288.87 166.661 1280.27 168.784 1274.14 173.031C1268.02 177.278 1264.94 183.26 1264.94 190.975C1264.94 197.912 1267.35 203.468 1272.2 207.715C1277.05 211.963 1283.52 214.086 1291.63 214.086C1299.73 214.086 1306.6 212.352 1312.83 208.883C1319.06 205.415 1324.08 200.637 1327.94 194.514C1331.8 188.392 1334.03 181.384 1334.63 173.456L1344.11 178.482C1344.11 190.55 1341.6 201.203 1336.54 210.511C1331.51 219.82 1324.47 227.075 1315.48 232.313C1306.49 237.551 1296.05 240.17 1284.2 240.17L1284.23 240.241ZM1363.4 235.498H1332.58V205.84L1331.41 200.212V144.47C1331.41 133.605 1328.15 125.111 1321.6 118.953C1315.09 112.83 1306.07 109.751 1294.64 109.751C1279.42 109.751 1265.86 115.767 1254.01 127.836L1235.04 106.778C1252.63 90.5683 1273.47 82.4636 1297.61 82.4636C1310.85 82.4636 1322.42 84.9764 1332.29 90.0374C1342.17 95.0631 1349.85 102.141 1355.26 111.237C1360.71 120.333 1363.4 131.092 1363.4 143.55V235.498Z" fill="#033D5A"/>
<path d="M1429.98 97.7875H1418.9L1395.54 45.4782L1404.32 45.1951V105.751H1389.66V40.2756H1406.51L1427.11 87.1699H1421.87L1442.68 40.2756H1459.24V105.751H1444.42V45.1951L1453.58 45.4782L1429.94 97.7875H1429.98Z" fill="#033D5A"/>
<path d="M1481.11 105.751V40.2756H1504.47C1511.3 40.2756 1517.28 41.6559 1522.38 44.4519C1527.48 47.2478 1531.44 51.0702 1534.24 55.9896C1537.03 60.9091 1538.45 66.5718 1538.45 72.9778C1538.45 79.3837 1537.03 85.0464 1534.24 89.9659C1531.44 94.8853 1527.48 98.7431 1522.38 101.539C1517.28 104.335 1511.3 105.751 1504.47 105.751H1481.11ZM1496.33 92.8326H1504.47C1508.19 92.8326 1511.41 92.0186 1514.1 90.3906C1516.79 88.7625 1518.84 86.4621 1520.29 83.4891C1521.74 80.4808 1522.45 76.977 1522.45 72.9424C1522.45 68.9077 1521.74 65.4039 1520.29 62.4664C1518.84 59.4934 1516.79 57.2284 1514.1 55.6003C1511.41 53.9723 1508.19 53.1583 1504.47 53.1583H1496.33V92.8326Z" fill="#033D5A"/>
<g clip-path="url(#clip1_2382_41)">
<path d="M180.608 113.164C173.052 117.733 165.99 123.011 159.464 128.894C153.781 86.5232 117.855 53.77 74.5174 53.77C73.4263 53.77 72.3557 53.77 71.2645 53.8326V178.357C71.2645 198.802 87.6732 215.45 107.808 215.45H114.458C113.738 221.207 113.367 227.09 113.367 233.057C113.367 235.227 113.408 237.396 113.511 239.524H107.788C94.3231 239.524 81.8879 235.039 71.8616 227.424C57.0794 216.305 47.4854 198.447 47.4854 178.357V29.6954H71.2439V29.7372C72.3145 29.6954 73.4057 29.6954 74.4968 29.6954C125.514 29.6954 168.481 65.2232 180.587 113.164H180.608Z" fill="#5320F1"/>
<path d="M284.146 137.551V47.511H260.388V47.5527C259.317 47.511 258.247 47.511 257.155 47.511C228.145 47.8493 200.781 60.6173 179.168 80.6605C184.006 87.4197 188.268 94.6171 191.871 102.211C207.6 83.4977 231.029 71.5856 257.155 71.5856C258.226 71.5856 259.317 71.6064 260.388 71.6482V109.784C260.105 109.774 259.821 109.762 259.538 109.75C258.689 109.715 257.84 109.68 256.991 109.68C237.844 109.68 219.726 114.103 203.524 121.988C161.895 142.266 133.071 185.429 133.071 235.268C133.071 236.708 133.092 238.126 133.154 239.566H156.933C156.871 238.147 156.83 236.708 156.83 235.268C156.83 198.447 176.286 166.153 205.315 148.358C220.406 139.095 238.091 133.775 256.991 133.775C266.399 133.775 275.52 135.09 284.146 137.551Z" fill="url(#paint0_linear_2382_41)"/>
<path d="M217.77 238.667C217.77 217.346 234.9 199.989 255.961 199.989H255.982C267.12 199.989 277.187 204.85 284.167 212.61V239.522H270.373V238.667C270.373 230.614 263.929 224.063 255.961 224.063C247.994 224.063 241.529 230.614 241.529 238.667V239.522H217.77V238.667Z" fill="url(#paint1_linear_2382_41)"/>
<path d="M255.961 154.385C233.5 154.385 213.241 163.981 198.83 179.294L218.903 193.042C228.723 184.03 241.694 178.46 255.961 178.46C266.255 178.46 275.911 181.339 284.146 186.345V159.663C275.396 156.263 265.885 154.385 255.961 154.385Z" fill="url(#paint2_linear_2382_41)"/>
<path d="M187.959 193.88L207.641 207.357C203.256 215.389 200.724 224.61 200.724 234.415C200.724 236.167 200.826 237.857 200.971 239.547H177.13C177.006 237.836 176.965 236.126 176.965 234.415C176.965 219.624 181.021 205.792 187.959 193.88Z" fill="url(#paint3_linear_2382_41)"/>
</g>
</g>
<defs>
<linearGradient id="paint0_linear_2382_41" x1="338.495" y1="326.619" x2="178.155" y2="47.5084" gradientUnits="userSpaceOnUse">
<stop stop-color="#5320F1"/>
<stop offset="1" stop-color="#E66869"/>
</linearGradient>
<linearGradient id="paint1_linear_2382_41" x1="338.495" y1="326.619" x2="178.155" y2="47.5084" gradientUnits="userSpaceOnUse">
<stop stop-color="#5320F1"/>
<stop offset="1" stop-color="#E66869"/>
</linearGradient>
<linearGradient id="paint2_linear_2382_41" x1="338.495" y1="326.619" x2="178.155" y2="47.5084" gradientUnits="userSpaceOnUse">
<stop stop-color="#5320F1"/>
<stop offset="1" stop-color="#E66869"/>
</linearGradient>
<linearGradient id="paint3_linear_2382_41" x1="338.495" y1="326.619" x2="178.155" y2="47.5084" gradientUnits="userSpaceOnUse">
<stop stop-color="#5320F1"/>
<stop offset="1" stop-color="#E66869"/>
</linearGradient>
<clipPath id="clip0_2382_41">
<rect width="1538.45" height="264.271" fill="white"/>
</clipPath>
<clipPath id="clip1_2382_41">
<rect width="236.639" height="209.85" fill="white" transform="translate(47.5078 29.6926)"/>
</clipPath>
</defs>
</svg>
