<svg width="123" height="24" viewBox="0 0 123 24" fill="none" xmlns="http://www.w3.org/2000/svg">
<g id="Group 595">
<path id="Vector" d="M14.6618 23.3841H0.671387V1.05685H4.387V20.1045H14.6618V23.3841Z" fill="#033D5A"/>
<path id="Vector_2" d="M28.6227 16.7951L29.342 17.3877C29.4054 18.6585 29.1892 19.7803 28.701 20.7604C28.2128 21.7406 27.5308 22.5046 26.655 23.0561C25.7792 23.6077 24.7506 23.8835 23.5617 23.8835C21.8549 23.8835 20.4871 23.3319 19.4548 22.2288C18.4225 21.1256 17.9082 19.5343 17.9082 17.451V7.76881H21.5306V17.0746C21.5306 18.3045 21.8027 19.2362 22.3431 19.8697C22.8835 20.5033 23.6326 20.8238 24.5903 20.8238C25.2761 20.8238 25.9059 20.6523 26.4798 20.3095C27.0538 19.9666 27.5308 19.4933 27.9146 18.8896C28.2985 18.2858 28.5333 17.5889 28.619 16.7988L28.6227 16.7951ZM32.0253 23.3841H28.4327V20.3877L28.4029 19.5119V7.76881H32.0253V23.3841Z" fill="#033D5A"/>
<path id="Vector_3" d="M60.2256 23.3841H56.6032V14.2646C56.6032 12.9938 56.3572 12.0211 55.869 11.3465C55.3808 10.672 54.6988 10.3328 53.823 10.3328C52.7608 10.3328 51.8962 10.8061 51.2328 11.7528C50.5657 12.6994 50.2341 14.0708 50.2341 15.8597V23.3841H46.6116V14.2646C46.6116 12.9938 46.3731 12.0211 45.8923 11.3465C45.4116 10.672 44.737 10.3328 43.8612 10.3328C42.7991 10.3328 41.9345 10.8061 41.2711 11.7528C40.604 12.6994 40.2723 14.0708 40.2723 15.8597V23.3841H36.6499V7.77254H40.2425V11.3316L40.0226 11.3018C40.25 10.344 40.6152 9.57258 41.1146 8.9912C41.614 8.40982 42.1916 7.97751 42.8476 7.69428C43.5035 7.41477 44.1967 7.27315 44.9234 7.27315C46.1942 7.27315 47.234 7.64955 48.0464 8.39864C48.8589 9.14773 49.3993 10.2397 49.6713 11.6782H49.2651C49.5334 10.6384 49.9471 9.79246 50.4987 9.14773C51.0502 8.50299 51.695 8.02969 52.4366 7.72782C53.1745 7.42595 53.9497 7.27687 54.7621 7.27687C56.469 7.27687 57.8069 7.85453 58.7759 9.00983C59.7448 10.1651 60.2293 11.8273 60.2293 13.9926V23.3915L60.2256 23.3841Z" fill="#033D5A"/>
<path id="Vector_4" d="M68.7789 2.46184C68.7789 3.08795 68.559 3.61342 68.123 4.03828C67.687 4.46686 67.1354 4.67929 66.4683 4.67929C65.8012 4.67929 65.2832 4.46686 64.8434 4.03828C64.4074 3.61342 64.1875 3.08422 64.1875 2.46184C64.1875 1.83947 64.4074 1.28045 64.8434 0.85187C65.2795 0.427015 65.831 0.210861 66.4981 0.210861C67.1652 0.210861 67.6832 0.423288 68.123 0.85187C68.559 1.28045 68.7789 1.81338 68.7789 2.46184ZM68.3093 23.3841H64.6869V7.77253H68.3093V23.3878V23.3841Z" fill="#033D5A"/>
<path id="Vector_5" d="M87.1743 23.3841H83.5518V14.3578C83.5518 13.0273 83.2761 12.0211 82.7245 11.3428C82.1729 10.6683 81.4276 10.3291 80.4921 10.3291C79.8251 10.3291 79.2027 10.5229 78.6176 10.9068C78.0362 11.2906 77.5554 11.8944 77.1828 12.718C76.8101 13.5416 76.62 14.6187 76.62 15.9491V23.3804H72.9976V7.77254H76.5902V12.5801H76.1206C76.2883 11.2049 76.6573 10.1353 77.2275 9.36388C77.8014 8.59244 78.4648 8.05205 79.225 7.739C79.9853 7.42595 80.7381 7.26942 81.4909 7.26942C83.2612 7.26942 84.6512 7.84335 85.6612 8.98748C86.6712 10.1316 87.1743 11.7975 87.1743 13.9851V23.3841Z" fill="#033D5A"/>
<path id="Vector_6" d="M96.2302 23.8835C95.1047 23.8835 94.1171 23.671 93.2637 23.2425C92.4103 22.8176 91.7432 22.2213 91.2662 21.4611C90.7854 20.7008 90.5469 19.8213 90.5469 18.8225C90.5469 17.22 91.1767 15.964 92.4364 15.0584C93.696 14.1528 95.4178 13.6981 97.6054 13.6981H101.478V16.1355H97.8849C96.7184 16.1355 95.8128 16.3591 95.1681 16.8063C94.5234 17.2535 94.1991 17.8833 94.1991 18.6958C94.1991 19.4262 94.4526 20.0113 94.9631 20.4585C95.4737 20.9058 96.1557 21.1294 97.0091 21.1294C97.8626 21.1294 98.5856 20.9468 99.2415 20.5815C99.8974 20.2163 100.427 19.7132 100.833 19.0685C101.239 18.4237 101.474 17.6858 101.537 16.851L102.536 17.3802C102.536 18.6511 102.271 19.7728 101.738 20.753C101.209 21.7331 100.468 22.4971 99.521 23.0487C98.5744 23.6002 97.475 23.876 96.2265 23.876L96.2302 23.8835ZM104.567 23.3841H101.321V20.261L101.198 19.6685V13.7988C101.198 12.6546 100.855 11.7602 100.166 11.1117C99.48 10.467 98.5297 10.1428 97.3259 10.1428C95.7234 10.1428 94.296 10.7763 93.0476 12.0472L91.05 9.82973C92.9022 8.12286 95.0973 7.26942 97.639 7.26942C99.0328 7.26942 100.251 7.53403 101.291 8.06696C102.331 8.59616 103.14 9.34152 103.71 10.2993C104.284 11.2571 104.567 12.39 104.567 13.7019V23.3841Z" fill="#033D5A"/>
<path id="Vector_7" d="M111.577 8.88313H110.411L107.951 3.37493L108.875 3.34511V9.72166H107.333V2.82709H109.106L111.275 7.76509H110.724L112.915 2.82709H114.659V9.72166H113.098V3.34511L114.063 3.37493L111.574 8.88313H111.577Z" fill="#033D5A"/>
<path id="Vector_8" d="M116.962 9.72166V2.82709H119.422C120.141 2.82709 120.771 2.97243 121.308 3.26685C121.845 3.56127 122.262 3.96376 122.556 4.48178C122.851 4.99981 123 5.5961 123 6.27064C123 6.94519 122.851 7.54148 122.556 8.05951C122.262 8.57753 121.845 8.98375 121.308 9.27817C120.771 9.57258 120.141 9.72166 119.422 9.72166H116.962ZM118.565 8.36138H119.422C119.813 8.36138 120.153 8.27566 120.436 8.10423C120.719 7.9328 120.935 7.69055 121.088 7.3775C121.241 7.06072 121.315 6.69177 121.315 6.26692C121.315 5.84206 121.241 5.47311 121.088 5.16379C120.935 4.85074 120.719 4.61222 120.436 4.44079C120.153 4.26936 119.813 4.18364 119.422 4.18364H118.565V8.36138Z" fill="#033D5A"/>
</g>
</svg>
