<svg width="169" height="34" viewBox="0 0 169 34" fill="none" xmlns="http://www.w3.org/2000/svg">
<path d="M2 30.9765C2.57405 30.2529 4.19616 30.5199 4.93347 30.5143C9.99382 30.4758 15.0528 30.5232 20.113 30.4116C47.9159 29.7982 75.7336 28.9042 103.508 27.3813C111.749 26.9293 119.992 26.4655 128.233 25.9945C131.297 25.8193 122.45 25.8901 122.272 25.8918C98.6277 26.1179 75.0986 29.0326 51.5198 30.6427C47.537 30.9147 43.565 30.9765 39.5764 30.9765C38.3954 30.9765 35.4051 31.1715 38.6917 30.4373C45.8541 28.8371 53.2003 28.099 60.46 27.3042C79.3354 25.2377 98.3031 24.1187 117.244 23.0669C131.108 22.297 172.753 21.7315 158.871 21.7315C141.016 21.7315 123.133 22.9963 105.277 23.3494C95.2337 23.548 85.0358 24.3256 74.9876 23.94C72.752 23.8543 73.0607 23.6765 75.0109 23.298C77.2795 22.8578 81.2609 22.399 83.3457 22.1681C107.754 19.4645 132.444 18.316 156.962 17.6483C160.191 17.5603 163.418 17.5712 166.647 17.5712C168.392 17.5712 163.188 18.0818 161.455 18.316C133.392 22.1105 104.673 20.885 76.4544 21.9883C67.9783 22.3197 42.5711 23.7848 51.0309 23.1183C71.6446 21.4941 92.2096 18.8939 112.82 17.1347C117.096 16.7697 121.373 16.4321 125.648 16.0561C128.378 15.8159 129.325 15.7254 125.392 15.8763C108.127 16.5387 90.8771 17.6391 73.614 18.3673C59.216 18.9747 44.768 19.4202 30.3569 19.4202C25.8635 19.4202 39.2419 17.8697 43.7205 17.4685C59.3063 16.0722 74.7627 13.5339 90.4233 13.411C93.0924 13.39 94.8839 13.2326 91.1683 13.7191C84.0945 14.6455 77.0544 15.3941 69.9355 15.8249C56.1158 16.6613 42.2789 17.1334 28.4478 17.674C20.4941 17.9848 12.0688 17.4814 4.16518 18.7269C-5.77458 20.2932 24.1009 16.0212 34.1053 15.0802C45.6604 13.9933 57.23 13.5737 68.818 13.2055C71.6064 13.1169 74.3233 13.0001 77.1063 13.0001C77.9135 13.0001 78.7219 12.9959 79.5275 13.0514C80.8696 13.144 79.5199 13.3655 79.2482 13.411C60.3836 16.5681 41.3253 18.4158 22.3481 20.4988C17.7972 20.9984 13.2575 21.6128 8.70508 22.091C8.46228 22.1165 7.41733 22.1938 8.42571 22.1938C11.259 22.1938 14.095 22.0374 16.9235 21.8856C36.2756 20.8466 55.6098 19.6974 74.9876 19.4459C77.3467 19.4153 84.2073 18.4067 82.0652 19.4973C79.358 20.8755 74.9602 21.0732 72.1007 21.5261C63.0445 22.9602 53.8882 23.7135 44.7682 24.4537C37.913 25.01 30.8155 25.99 23.9312 25.7634C20.6436 25.6551 30.3944 24.3711 33.6629 23.9657C45.7895 22.4616 57.9599 20.8086 70.1684 20.4475C74.7658 20.3115 80.8292 19.303 85.3945 20.4475C88.3035 21.1767 79.5117 21.5665 76.5475 21.9369C59.445 24.0741 42.197 25.8867 24.9789 26.3283C12.9265 26.6375 48.8911 22.8466 60.9023 21.7058C75.1772 20.35 89.4548 18.9817 103.764 18.1362C105.913 18.0092 111.702 17.674 114.496 17.674C114.917 17.674 115.866 17.3301 115.754 17.7767C115.628 18.2768 114.843 18.0451 114.38 18.1362C113.275 18.3535 112.164 18.5373 111.051 18.7012C84.3102 22.6394 56.8997 21.8605 29.9844 22.2965C20.0735 22.457 25.8359 22.3634 17.5986 22.5533C16.3572 22.5819 14.7516 23.5218 13.8736 22.5533C13.0449 21.6392 16.1596 21.9694 17.3193 21.7829C21.262 21.1486 25.274 20.6643 29.2394 20.2934C63.7472 17.0656 98.569 17.1989 133.168 17.674C134.395 17.6908 150.609 17.8899 137.918 18.8039C113.606 20.5547 89.2063 20.2751 64.8602 20.8327C57.4696 21.0019 35.3112 22.0165 42.6961 21.6545C48.6098 21.3645 54.5226 21.0424 60.4367 20.7556C84.3488 19.5962 108.305 17.934 132.19 16.1845C138.994 15.6861 130.507 15.7222 129.397 15.7222C117.553 15.7222 105.708 15.9623 93.869 16.2872C80.8774 16.6437 67.8836 17.0772 54.8957 17.5712C52.4591 17.6639 45.1792 18.0375 47.6085 18.2646C52.8326 18.7529 58.1607 18.4794 63.3934 18.5471C79.8466 18.76 96.2962 19.2192 112.75 19.3689C125.369 19.4837 163.185 18.5733 150.606 19.677C129.126 21.5618 107.428 20.8363 85.9067 21.9626C82.2257 22.1553 71.2211 22.7171 74.8945 23.0412C76.9846 23.2257 79.0863 22.8986 81.1805 22.7844C90.4901 22.2768 99.7898 21.6007 109.095 21.0124C120.921 20.2648 132.731 19.9046 144.576 19.8825C147.828 19.8764 157.433 19.6608 154.308 20.6529C148.055 22.6376 140.901 22.1586 134.519 22.1938C119.129 22.2784 103.739 22.0713 88.3513 22.4249C84.0682 22.5233 79.6104 22.2718 75.3369 22.6817C73.2025 22.8864 79.6299 22.753 81.7626 22.5276C97.5698 20.8571 113.808 17.68 129.723 18.0335C137.544 18.2072 114.678 23.1022 106.907 24.0941C101.551 24.7778 96.1655 25.1637 90.7958 25.6863C86.0405 26.1491 100.283 24.4759 105.044 24.0941C121.758 22.7539 138.841 22.6226 155.565 23.8373C157.371 23.9685 157.567 23.9906 159.104 24.0428C159.243 24.0475 158.824 24.0428 158.685 24.0428C151.879 24.0428 145.073 24.025 138.267 24.0684C126.166 24.1456 114.076 24.4096 101.994 25.1984C92.2951 25.8316 98.6115 25.4682 92.0763 25.9688C91.0178 26.0499 94.186 25.7159 95.2426 25.6093C111.413 23.9779 127.583 22.2463 143.831 22.1938C145.757 22.1875 151.502 22.0345 149.605 22.3992C144.403 23.3995 139.134 24.0277 133.867 24.4023C103.603 26.5544 73.1699 26.0855 42.8591 26.8163C40.7141 26.868 34.2879 27.2272 36.4334 27.2272C45.8456 27.2272 55.2868 26.8993 64.6972 26.7649C85.6063 26.4664 106.509 25.7961 127.418 25.5066C132.392 25.4377 147.206 24.5622 142.341 25.712C136.004 27.2099 128.947 26.9937 122.552 27.2272C104.58 27.8833 86.5873 27.8303 68.6085 27.9719C55.425 28.0758 42.2336 28.0633 29.0532 28.4342C26.9161 28.4943 23.5089 28.6439 21.2771 28.5626C20.5454 28.5359 19.8037 28.5308 19.0887 28.3571C18.7817 28.2826 19.3014 27.5891 19.6008 27.484C27.915 24.566 37.7185 24.6748 46.3281 23.8887C48.2 23.7178 53.7637 23.1996 51.9622 23.786C47.3287 25.2941 42.0376 25.2725 37.2715 25.3782C30.8255 25.5211 24.3716 25.4295 17.9246 25.4295C17.395 25.4295 8.40748 26.2615 7.84367 25.1214C7.60037 24.6293 17.7217 21.3927 19.1818 20.807" stroke="#86EFAC" stroke-width="3" stroke-linecap="round"/>
<path d="M30 16C39.187 11.28 49.424 10.9144 59.2816 10.9144C60.1676 10.9144 61.0536 10.9144 61.9397 10.9144C62.6437 10.9144 60.5316 10.9102 59.8276 10.9144C54.6328 10.9457 49.48 11.4484 44.3103 12.0446C40.5028 12.4837 36.6774 12.7425 32.8736 13.21C32.7985 13.2192 31.8798 13.4475 32.773 13.2453C34.1552 12.9324 35.5294 12.6543 36.9253 12.433C49.4171 10.4535 62.3994 8.13396 75 9.32521" stroke="#86EFAC" stroke-width="13" stroke-linecap="round"/>
<path d="M11.2994 14.8319C11.2488 14.3931 10.8762 14.4968 11.4438 14.0805C12.5311 13.2831 13.7929 12.6935 14.9956 12.1551C19.6492 10.0719 24.4869 8.33436 29.3614 6.97392C38.0746 4.54211 47.1413 2.565 56.115 1.65181C56.9414 1.56771 59.1948 1.04376 60.0566 1.51093C60.4031 1.69877 59.3881 1.95376 59.0171 2.07445C57.5846 2.54034 56.1528 2.86543 54.6857 3.20148C50.7443 4.10424 46.7819 4.89649 42.832 5.75296C41.7105 5.99615 37.0532 7.00905 35.7285 7.3809C35.1687 7.53807 34.5638 7.62793 34.0826 7.97573C33.956 8.06725 34.1929 8.35264 34.3425 8.38271C38.2288 9.16373 42.7384 8.63316 46.6437 8.63316C52.9098 8.63316 59.1759 8.63316 65.442 8.63316C67.6576 8.63316 69.8702 8.62554 72.0835 8.75839C72.5813 8.78827 76.5254 8.64213 76.9346 9.19668C77.4636 9.9135 75.2694 9.53043 74.4369 9.69758C70.8768 10.4123 67.3061 11.0779 63.7816 11.983C62.2831 12.3677 60.7549 12.7689 59.2914 13.2978C57.7258 13.8636 60.1551 13.7089 60.3309 13.7048C72.6311 13.4223 84.9916 9.92797 97.0179 7.42786C102.19 6.35258 107.369 5.31196 112.539 4.21894C113.949 3.9208 115.383 3.71302 116.755 3.24844C117.645 2.94689 114.921 3.62264 114.011 3.84327C106.876 5.57323 99.6375 7.21449 92.6288 9.49409C87.5802 11.1361 102.951 7.1704 108.092 5.9095C113.005 4.70454 117.934 3.59236 122.862 2.46578C126.223 1.69741 130.083 0.183554 133.561 0.00821907C137.39 -0.184863 126.43 3.07537 122.79 4.37548C121.539 4.822 119.962 5.23831 118.819 6.03472C117.989 6.61369 120.803 6.05826 121.779 5.89384C128.507 4.76029 135.207 3.54412 141.963 2.60666C145.558 2.10792 149.169 1.57599 152.792 1.37005C153.325 1.33975 156.528 0.862702 154.553 2.15272C150.621 4.72138 146.094 6.24194 142.31 9.07145C141.857 9.40985 141.401 9.88796 142.252 9.97934C144.799 10.2527 147.581 9.74758 150.106 9.47844C152.435 9.2302 154.748 8.86707 157.066 8.52359C157.708 8.42837 159.166 8.2081 159.953 8.13226C160.179 8.11049 159.525 8.30018 159.303 8.3514C153.693 9.64673 147.743 10.647 142.454 13.1726C142.096 13.3438 143.218 13.4164 143.609 13.4074C146.215 13.3473 148.822 13.2228 151.42 13.0004C152.01 12.9499 153.753 12.7967 153.196 13.0161C150.444 14.1013 147.579 14.9962 144.764 15.865C141.5 16.8725 138.21 17.7785 134.947 18.7921C134.695 18.8702 132.172 19.9093 131.568 19.7783C130.56 19.5598 128.896 19.995 127.987 20.154C124.416 20.7785 120.904 21.657 117.303 22.095C114.658 22.4167 111.886 22.862 109.218 22.862C107.821 22.862 109.8 22.1994 109.824 22.1889C111.22 21.5982 113.013 20.9914 114.401 20.514C118.162 19.2212 121.937 17.9787 125.677 16.6163C127.313 16.0204 131.76 15.0837 133.041 13.3918C133.097 13.3174 132.926 13.2201 132.839 13.2039C132.19 13.0843 129.621 13.1678 129.431 13.1726C125.614 13.2683 121.829 13.6075 118.04 14.1118C111.675 14.9587 105.34 16.0153 98.9959 17.0233C97.5496 17.2531 90.1792 18.4768 87.8786 18.6199C85.9486 18.74 87.323 18.0757 87.9941 17.7747C93.8841 15.1333 100.449 14.6408 106.475 12.4369C110.43 10.9903 98.1996 13.6502 94.087 14.4249C87.4481 15.6754 80.7186 16.7277 74.1625 18.4321C73.8186 18.5215 73.4766 18.6206 73.1374 18.7295C72.8563 18.8198 72.1166 19.0662 73.0364 18.9174C77.6622 18.1688 82.2546 16.6536 86.7814 15.4267C90.3476 14.4601 93.9337 13.532 97.4655 12.4212C98.4961 12.0971 101.109 11.3674 98.043 11.576C88.0491 12.2557 78.2154 14.755 68.4018 16.7729C64.1037 17.6566 59.8047 18.5425 55.5375 19.5904C55.3942 19.6256 52.7039 20.2952 52.0724 20.5609C51.6294 20.7473 53.0209 20.4718 53.4873 20.3731C57.5114 19.5218 69.5261 16.7129 65.4709 17.3677C59.4514 18.3397 53.5065 19.6818 47.4522 20.467C43.6263 20.9633 32.3228 22.9513 35.9307 21.4845C37.8284 20.713 39.8443 20.2438 41.7925 19.6531C43.0829 19.2618 44.7715 18.6467 42.4567 19.1835C37.0238 20.4432 31.6764 22.1555 26.2716 23.5507C25.48 23.7551 27.8519 23.1213 28.6539 22.9715C29.2093 22.8678 29.7671 22.7718 30.3287 22.7211C30.5783 22.6985 31.0094 22.4917 31.0795 22.7524C31.147 23.0033 30.657 23.0095 30.4298 23.0968C29.8945 23.3025 29.344 23.4583 28.7983 23.629C24.9511 24.8321 20.8944 26.5443 16.8869 26.9788C14.8154 27.2034 20.8652 25.5936 22.7343 24.5995C24.8327 23.4834 18.0783 25.0542 15.7463 25.2256C14.5102 25.3165 14.5507 25.4453 14.418 24.4743C14.2837 23.4911 12.0593 23.5136 11.4438 23.4098C10.9537 23.3272 10 23.3093 10 22.5802C10 21.658 10.2508 22.039 11.6171 21.5941C18.7903 19.2579 25.9758 17.3109 33.303 15.6145C35.2335 15.1676 37.173 14.7401 39.0782 14.1744C39.9152 13.9259 40.5283 13.6168 39.338 13.83C34.5444 14.6887 29.6291 15.1998 24.9145 16.4911C24.8693 16.5035 22.2074 17.2588 24.4958 16.8355C29.2089 15.9636 33.8945 14.8822 38.5873 13.8927C43.9321 12.7656 59.9476 9.40567 54.7001 10.9812C51.6483 11.8974 48.4555 12.3668 45.4309 13.3604C44.9055 13.5331 46.5314 13.3654 47.0768 13.2978C52.7961 12.5892 58.4748 11.4792 64.1714 10.5898C70.0759 9.66801 75.9891 8.8053 81.9013 7.94442C84.5206 7.56302 87.5456 6.79977 90.2465 6.94261C91.3353 7.0002 88.1063 7.39484 87.0412 7.64701C83.2337 8.54854 79.428 9.64297 75.794 11.1846C75.2534 11.414 73.5102 11.9474 74.8556 12.6717C77.8448 14.2809 81.4842 14.581 84.7312 15.051C85.909 15.2215 89.253 15.3697 88.1963 15.9589C86.2228 17.0592 82.8776 16.8864 80.7607 17.0546C78.2841 17.2514 75.8078 17.347 73.3251 17.3677C73.0086 17.3703 69.9597 17.7262 69.629 17.3677C69.1407 16.8382 71.0062 17.2518 71.6936 17.1798C75.6088 16.7703 79.5238 16.2829 83.4173 15.6771C83.9533 15.5937 88.2626 15.3215 88.9182 14.4562C89.2319 14.0421 87.9397 14.2767 87.4455 14.2683C86.2329 14.2478 85.0199 14.2683 83.8071 14.2683" stroke="#86EFAC" stroke-width="13" stroke-linecap="round"/>
</svg>
