<svg width="301" height="39" viewBox="0 0 301 39" fill="none" xmlns="http://www.w3.org/2000/svg">
<path d="M4.12069 19.4224C40.1704 19.4224 76.2581 20.0755 112.329 20.0755C129.828 20.0755 147.259 19.6821 164.739 19.4224C178.772 19.214 192.503 16.927 206.456 16.2299C218.253 15.6404 229.953 15.5043 241.88 15.5043C250.285 15.5043 258.617 16.1573 267.007 16.1573C271.159 16.1573 275.203 17.0729 279.372 16.774C282.329 16.5621 285.126 15.6661 288.129 15.468C290.323 15.3233 294.923 15.4349 296.578 14.3433C297.143 13.9703 299.977 14.7138 300.714 14.8875C302.072 15.2073 298.225 16.0674 296.842 16.3024C279.626 19.2278 261.174 18.9045 243.684 19.4224C213.762 20.3084 184.01 20.7285 154.09 20.7285C139.106 20.7285 124.655 20.7682 109.821 22.3248C93.7702 24.0089 77.3881 24.1768 61.2392 24.5015C42.9586 24.8691 25.0038 25.3749 6.893 26.5694C6.32533 26.6069 -1.14132 26.6464 1.04034 27.2587C6.81632 28.8798 14.6684 27.9118 20.5346 27.9118C39.178 27.9118 57.8214 27.9118 76.4649 27.9118C109.058 27.9118 141.651 27.9118 174.244 27.9118C188.898 27.9118 203.665 28.3583 218.293 27.5852C238.067 26.5402 257.458 25.9527 277.304 25.9527C283.626 25.9527 289.948 25.9527 296.27 25.9527C303.958 25.9527 289.174 27.4638 288.393 27.549C250.563 31.6751 212.383 30.0945 174.332 30.5964C158.203 30.8092 142.219 32.383 126.103 32.4829C104.775 32.6151 83.2174 34.5201 62.0313 36.4011C45.9235 37.8312 30.0184 37.1704 13.8898 37.8522C9.90959 38.0205 5.81482 38.1455 1.87643 38.6867C-0.0401697 38.95 -0.959789 39.2516 1.43638 38.6504C6.36552 37.4136 12.9473 36.488 18.1143 36.4011C38.0461 36.0657 57.9422 35.7049 77.8731 35.095C106.605 34.2158 135.467 32.8553 164.211 32.5192C196.089 32.1464 227.996 32.4829 259.878 32.4829C266.489 32.4829 272.858 31.1769 279.416 31.1769C282.485 31.1769 289.078 31.2507 290.109 28.2745C290.953 25.8383 293.826 24.8002 294.642 22.0345C295.882 17.8304 298.778 12.7153 298.778 8.321C298.778 5.66262 261.961 9.90034 259.394 10.1712C235.533 12.6892 212.102 16.6234 187.974 17.4634C149.803 18.792 111.635 18.6637 73.4726 20.3294C57.9404 21.0073 42.2879 20.2708 26.8273 21.8894C23.7082 22.2159 20.7369 22.6876 17.5862 22.6876C15.8325 22.6876 8.25018 22.769 14.1098 21.7443C30.8771 18.812 49.8327 20.7642 66.7838 20.7285C98.9111 20.6607 131.025 20.0755 163.155 20.0755C192.524 20.0755 221.305 18.9454 250.461 15.7945C256.74 15.1159 264.85 15.0996 270.747 12.8559C271.082 12.7284 275.698 11.1398 274.839 10.2801C273.33 8.76883 267.297 8.57551 265.29 8.321C253.012 6.76371 240.446 7.01495 228.062 7.01495C209.974 7.01495 191.773 7.5941 173.848 9.73589C152.29 12.3117 130.458 16.3505 108.677 17.3182C84.2608 18.403 59.7647 17.1674 35.3202 18.4792C34.5858 18.5186 4.47273 21.1989 4.47273 20.5834C4.47273 17.6117 36.6091 17.2132 38.4006 17.1368C67.8996 15.8789 97.5769 16.2766 126.983 13.908C145.26 12.4358 163.313 10.9331 181.681 10.9331C183.869 10.9331 193.223 12.5803 194.222 10.9331" stroke="#86EFAC" stroke-width="13" stroke-linecap="round"/>
</svg>
