<svg width="25" height="23" viewBox="0 0 25 23" fill="none" xmlns="http://www.w3.org/2000/svg">
<g id="Layer_1" clip-path="url(#clip0_3090_11)">
<path id="Vector" d="M14.0184 9.5022C13.2227 9.98329 12.4791 10.5391 11.7919 11.1586C11.1935 6.69692 7.41049 3.24799 2.84699 3.24799C2.73209 3.24799 2.61935 3.24799 2.50445 3.25458V16.3671C2.50445 18.5199 4.2323 20.273 6.35254 20.273H7.05278C6.9769 20.8793 6.93788 21.4988 6.93788 22.127C6.93788 22.3555 6.94222 22.584 6.95306 22.808H6.35037C4.93254 22.808 3.62311 22.3357 2.56732 21.5339C1.01075 20.363 0.000488281 18.4826 0.000488281 16.3671V0.712921H2.50229V0.717315C2.61502 0.712921 2.72992 0.712921 2.84482 0.712921C8.21696 0.712921 12.7414 4.45402 14.0162 9.5022H14.0184Z" fill="#5320F1"/>
<g id="Union">
<path d="M24.921 12.0702V2.58891H22.4192V2.59331C22.3065 2.58891 22.1937 2.58891 22.0788 2.58891C19.024 2.62453 16.1426 3.96901 13.8667 6.07958C14.3762 6.79133 14.8249 7.54922 15.2043 8.34884C16.8606 6.37834 19.3277 5.12399 22.0788 5.12399C22.1916 5.12399 22.3065 5.12618 22.4192 5.13058V9.14632C22.3894 9.14523 22.3596 9.14399 22.3298 9.14275C22.2403 9.13905 22.1509 9.13534 22.0615 9.13534C20.0453 9.13534 18.1375 9.60106 16.4314 10.4314C12.0478 12.5667 9.0127 17.1118 9.0127 22.3599C9.0127 22.5115 9.01486 22.6609 9.02137 22.8124H11.5253C11.5188 22.663 11.5145 22.5115 11.5145 22.3599C11.5145 18.4826 13.5632 15.082 16.62 13.2082C18.2091 12.2328 20.0713 11.6726 22.0615 11.6726C23.0522 11.6726 24.0126 11.811 24.921 12.0702Z" fill="url(#paint0_linear_3090_11)"/>
<path d="M17.9316 22.7178C17.9316 20.4727 19.7353 18.6449 21.9531 18.6449H21.9553C23.1281 18.6449 24.1882 19.1568 24.9232 19.974V22.8078H23.4706V22.7178C23.4706 21.8698 22.7921 21.18 21.9531 21.18C21.1141 21.18 20.4334 21.8698 20.4334 22.7178V22.8078H17.9316V22.7178Z" fill="url(#paint1_linear_3090_11)"/>
<path d="M21.9531 13.8428C19.5879 13.8428 17.4546 14.8533 15.9371 16.4658L18.0508 17.9134C19.0849 16.9644 20.4507 16.3779 21.9531 16.3779C23.0371 16.3779 24.0538 16.6811 24.921 17.2083V14.3986C23.9996 14.0405 22.9981 13.8428 21.9531 13.8428Z" fill="url(#paint2_linear_3090_11)"/>
<path d="M14.7924 18.0017L16.865 19.4208C16.4032 20.2666 16.1365 21.2376 16.1365 22.27C16.1365 22.4546 16.1474 22.6325 16.1625 22.8104H13.6521C13.6391 22.6303 13.6347 22.4502 13.6347 22.27C13.6347 20.7125 14.0618 19.2561 14.7924 18.0017Z" fill="url(#paint3_linear_3090_11)"/>
</g>
</g>
<defs>
<linearGradient id="paint0_linear_3090_11" x1="30.6439" y1="31.9792" x2="13.76" y2="2.58864" gradientUnits="userSpaceOnUse">
<stop stop-color="#5320F1"/>
<stop offset="1" stop-color="#E66869"/>
</linearGradient>
<linearGradient id="paint1_linear_3090_11" x1="30.6439" y1="31.9792" x2="13.76" y2="2.58864" gradientUnits="userSpaceOnUse">
<stop stop-color="#5320F1"/>
<stop offset="1" stop-color="#E66869"/>
</linearGradient>
<linearGradient id="paint2_linear_3090_11" x1="30.6439" y1="31.9792" x2="13.76" y2="2.58864" gradientUnits="userSpaceOnUse">
<stop stop-color="#5320F1"/>
<stop offset="1" stop-color="#E66869"/>
</linearGradient>
<linearGradient id="paint3_linear_3090_11" x1="30.6439" y1="31.9792" x2="13.76" y2="2.58864" gradientUnits="userSpaceOnUse">
<stop stop-color="#5320F1"/>
<stop offset="1" stop-color="#E66869"/>
</linearGradient>
<clipPath id="clip0_3090_11">
<rect width="24.9182" height="22.0973" fill="white" transform="translate(0.00244141 0.712646)"/>
</clipPath>
</defs>
</svg>
